<svg xmlns="http://www.w3.org/2000/svg" viewBox="0 0 1106 1178"><title>fondo</title><g id="Capa_2" data-name="Capa 2"><g id="Capa_1-2" data-name="Capa 1"><g id="Capa_2-2" data-name="Capa 2"><g id="Capa_1-2-2" data-name="Capa 1-2"><circle cx="148" cy="121" r="1" style="fill:#272a5d"/><circle cx="173" cy="121" r="1" style="fill:#272a5d"/><circle cx="198" cy="121" r="1" style="fill:#272a5d"/><circle cx="223" cy="121" r="1" style="fill:#272a5d"/><circle cx="248" cy="121" r="1" style="fill:#272a5d"/><circle cx="273" cy="121" r="1" style="fill:#272a5d"/><circle cx="298" cy="121" r="1" style="fill:#272a5d"/><circle cx="323" cy="121" r="1" style="fill:#272a5d"/><circle cx="348" cy="121" r="1" style="fill:#272a5d"/><circle cx="148" cy="146" r="1" style="fill:#272a5d"/><circle cx="173" cy="146" r="1" style="fill:#272a5d"/><circle cx="198" cy="146" r="1" style="fill:#272a5d"/><circle cx="223" cy="146" r="1" style="fill:#272a5d"/><circle cx="248" cy="146" r="1" style="fill:#272a5d"/><circle cx="273" cy="146" r="1" style="fill:#272a5d"/><circle cx="298" cy="146" r="1" style="fill:#272a5d"/><circle cx="323" cy="146" r="1" style="fill:#272a5d"/><circle cx="348" cy="146" r="1" style="fill:#272a5d"/><circle cx="148" cy="171" r="1" style="fill:#272a5d"/><circle cx="173" cy="171" r="1" style="fill:#272a5d"/><circle cx="198" cy="171" r="1" style="fill:#272a5d"/><circle cx="223" cy="171" r="1" style="fill:#272a5d"/><circle cx="248" cy="171" r="1" style="fill:#272a5d"/><circle cx="273" cy="171" r="1" style="fill:#272a5d"/><circle cx="298" cy="171" r="1" style="fill:#272a5d"/><circle cx="323" cy="171" r="1" style="fill:#272a5d"/><circle cx="348" cy="171" r="1" style="fill:#272a5d"/><circle cx="148" cy="196" r="1" style="fill:#272a5d"/><circle cx="173" cy="196" r="1" style="fill:#272a5d"/><circle cx="198" cy="196" r="1" style="fill:#272a5d"/><circle cx="223" cy="196" r="1" style="fill:#272a5d"/><circle cx="248" cy="196" r="1" style="fill:#272a5d"/><circle cx="273" cy="196" r="1" style="fill:#272a5d"/><circle cx="298" cy="196" r="1" style="fill:#272a5d"/><circle cx="323" cy="196" r="1" style="fill:#272a5d"/><circle cx="348" cy="196" r="1" style="fill:#272a5d"/><circle cx="148" cy="221" r="1" style="fill:#272a5d"/><circle cx="173" cy="221" r="1" style="fill:#272a5d"/><circle cx="198" cy="221" r="1" style="fill:#272a5d"/><circle cx="223" cy="221" r="1" style="fill:#272a5d"/><circle cx="248" cy="221" r="1" style="fill:#272a5d"/><circle cx="273" cy="221" r="1" style="fill:#272a5d"/><circle cx="298" cy="221" r="1" style="fill:#272a5d"/><circle cx="323" cy="221" r="1" style="fill:#272a5d"/><circle cx="348" cy="221" r="1" style="fill:#272a5d"/><circle cx="148" cy="246" r="1" style="fill:#272a5d"/><circle cx="173" cy="246" r="1" style="fill:#272a5d"/><circle cx="198" cy="246" r="1" style="fill:#272a5d"/><circle cx="223" cy="246" r="1" style="fill:#272a5d"/><circle cx="248" cy="246" r="1" style="fill:#272a5d"/><circle cx="273" cy="246" r="1" style="fill:#272a5d"/><circle cx="298" cy="246" r="1" style="fill:#272a5d"/><circle cx="323" cy="246" r="1" style="fill:#272a5d"/><circle cx="348" cy="246" r="1" style="fill:#272a5d"/><circle cx="148" cy="271" r="1" style="fill:#272a5d"/><circle cx="173" cy="271" r="1" style="fill:#272a5d"/><circle cx="198" cy="271" r="1" style="fill:#272a5d"/><circle cx="223" cy="271" r="1" style="fill:#272a5d"/><circle cx="248" cy="271" r="1" style="fill:#272a5d"/><circle cx="273" cy="271" r="1" style="fill:#272a5d"/><circle cx="298" cy="271" r="1" style="fill:#272a5d"/><circle cx="323" cy="271" r="1" style="fill:#272a5d"/><circle cx="348" cy="271" r="1" style="fill:#272a5d"/></g></g><g id="Capa_2-3" data-name="Capa 2"><g id="Capa_1-2-3" data-name="Capa 1-2"><circle cx="725" cy="615" r="1" style="fill:#272a5d"/><circle cx="725" cy="590" r="1" style="fill:#272a5d"/><circle cx="725" cy="565" r="1" style="fill:#272a5d"/><circle cx="725" cy="540" r="1" style="fill:#272a5d"/><circle cx="725" cy="515" r="1" style="fill:#272a5d"/><circle cx="725" cy="490" r="1" style="fill:#272a5d"/><circle cx="725" cy="465" r="1" style="fill:#272a5d"/><circle cx="725" cy="440" r="1" style="fill:#272a5d"/><circle cx="725" cy="415" r="1" style="fill:#272a5d"/><circle cx="750" cy="615" r="1" style="fill:#272a5d"/><circle cx="750" cy="590" r="1" style="fill:#272a5d"/><circle cx="750" cy="565" r="1" style="fill:#272a5d"/><circle cx="750" cy="540" r="1" style="fill:#272a5d"/><circle cx="750" cy="515" r="1" style="fill:#272a5d"/><circle cx="750" cy="490" r="1" style="fill:#272a5d"/><circle cx="750" cy="465" r="1" style="fill:#272a5d"/><circle cx="750" cy="440" r="1" style="fill:#272a5d"/><circle cx="750" cy="415" r="1" style="fill:#272a5d"/><circle cx="775" cy="615" r="1" style="fill:#272a5d"/><circle cx="775" cy="590" r="1" style="fill:#272a5d"/><circle cx="775" cy="565" r="1" style="fill:#272a5d"/><circle cx="775" cy="540" r="1" style="fill:#272a5d"/><circle cx="775" cy="515" r="1" style="fill:#272a5d"/><circle cx="775" cy="490" r="1" style="fill:#272a5d"/><circle cx="775" cy="465" r="1" style="fill:#272a5d"/><circle cx="775" cy="440" r="1" style="fill:#272a5d"/><circle cx="775" cy="415" r="1" style="fill:#272a5d"/><circle cx="800" cy="615" r="1" style="fill:#272a5d"/><circle cx="800" cy="590" r="1" style="fill:#272a5d"/><circle cx="800" cy="565" r="1" style="fill:#272a5d"/><circle cx="800" cy="540" r="1" style="fill:#272a5d"/><circle cx="800" cy="515" r="1" style="fill:#272a5d"/><circle cx="800" cy="490" r="1" style="fill:#272a5d"/><circle cx="800" cy="465" r="1" style="fill:#272a5d"/><circle cx="800" cy="440" r="1" style="fill:#272a5d"/><circle cx="800" cy="415" r="1" style="fill:#272a5d"/><circle cx="825" cy="615" r="1" style="fill:#272a5d"/><circle cx="825" cy="590" r="1" style="fill:#272a5d"/><circle cx="825" cy="565" r="1" style="fill:#272a5d"/><circle cx="825" cy="540" r="1" style="fill:#272a5d"/><circle cx="825" cy="515" r="1" style="fill:#272a5d"/><circle cx="825" cy="490" r="1" style="fill:#272a5d"/><circle cx="825" cy="465" r="1" style="fill:#272a5d"/><circle cx="825" cy="440" r="1" style="fill:#272a5d"/><circle cx="825" cy="415" r="1" style="fill:#272a5d"/><circle cx="850" cy="615" r="1" style="fill:#272a5d"/><circle cx="850" cy="590" r="1" style="fill:#272a5d"/><circle cx="850" cy="565" r="1" style="fill:#272a5d"/><circle cx="850" cy="540" r="1" style="fill:#272a5d"/><circle cx="850" cy="515" r="1" style="fill:#272a5d"/><circle cx="850" cy="490" r="1" style="fill:#272a5d"/><circle cx="850" cy="465" r="1" style="fill:#272a5d"/><circle cx="850" cy="440" r="1" style="fill:#272a5d"/><circle cx="850" cy="415" r="1" style="fill:#272a5d"/><circle cx="875" cy="615" r="1" style="fill:#272a5d"/><circle cx="875" cy="590" r="1" style="fill:#272a5d"/><circle cx="875" cy="565" r="1" style="fill:#272a5d"/><circle cx="875" cy="540" r="1" style="fill:#272a5d"/><circle cx="875" cy="515" r="1" style="fill:#272a5d"/><circle cx="875" cy="490" r="1" style="fill:#272a5d"/><circle cx="875" cy="465" r="1" style="fill:#272a5d"/><circle cx="875" cy="440" r="1" style="fill:#272a5d"/><circle cx="875" cy="415" r="1" style="fill:#272a5d"/></g></g><rect width="1106" height="1178" style="fill:none"/><rect x="286" y="896" width="78" height="126" style="fill:#f2f2f2"/><rect x="984" y="32" width="34" height="26" style="fill:#f2f2f2"/></g></g></svg>
