<svg xmlns="http://www.w3.org/2000/svg" viewBox="0 0 202 152"><title>punticos2</title><g id="Capa_2" data-name="Capa 2"><g id="Capa_1-2" data-name="Capa 1"><circle cx="1" cy="1" r="1" style="fill:#272a5d"/><circle cx="26" cy="1" r="1" style="fill:#272a5d"/><circle cx="51" cy="1" r="1" style="fill:#272a5d"/><circle cx="76" cy="1" r="1" style="fill:#272a5d"/><circle cx="101" cy="1" r="1" style="fill:#272a5d"/><circle cx="126" cy="1" r="1" style="fill:#272a5d"/><circle cx="151" cy="1" r="1" style="fill:#272a5d"/><circle cx="176" cy="1" r="1" style="fill:#272a5d"/><circle cx="201" cy="1" r="1" style="fill:#272a5d"/><circle cx="1" cy="26" r="1" style="fill:#272a5d"/><circle cx="26" cy="26" r="1" style="fill:#272a5d"/><circle cx="51" cy="26" r="1" style="fill:#272a5d"/><circle cx="76" cy="26" r="1" style="fill:#272a5d"/><circle cx="101" cy="26" r="1" style="fill:#272a5d"/><circle cx="126" cy="26" r="1" style="fill:#272a5d"/><circle cx="151" cy="26" r="1" style="fill:#272a5d"/><circle cx="176" cy="26" r="1" style="fill:#272a5d"/><circle cx="201" cy="26" r="1" style="fill:#272a5d"/><circle cx="1" cy="51" r="1" style="fill:#272a5d"/><circle cx="26" cy="51" r="1" style="fill:#272a5d"/><circle cx="51" cy="51" r="1" style="fill:#272a5d"/><circle cx="76" cy="51" r="1" style="fill:#272a5d"/><circle cx="101" cy="51" r="1" style="fill:#272a5d"/><circle cx="126" cy="51" r="1" style="fill:#272a5d"/><circle cx="151" cy="51" r="1" style="fill:#272a5d"/><circle cx="176" cy="51" r="1" style="fill:#272a5d"/><circle cx="201" cy="51" r="1" style="fill:#272a5d"/><circle cx="1" cy="76" r="1" style="fill:#272a5d"/><circle cx="26" cy="76" r="1" style="fill:#272a5d"/><circle cx="51" cy="76" r="1" style="fill:#272a5d"/><circle cx="76" cy="76" r="1" style="fill:#272a5d"/><circle cx="101" cy="76" r="1" style="fill:#272a5d"/><circle cx="126" cy="76" r="1" style="fill:#272a5d"/><circle cx="151" cy="76" r="1" style="fill:#272a5d"/><circle cx="176" cy="76" r="1" style="fill:#272a5d"/><circle cx="201" cy="76" r="1" style="fill:#272a5d"/><circle cx="1" cy="101" r="1" style="fill:#272a5d"/><circle cx="26" cy="101" r="1" style="fill:#272a5d"/><circle cx="51" cy="101" r="1" style="fill:#272a5d"/><circle cx="76" cy="101" r="1" style="fill:#272a5d"/><circle cx="101" cy="101" r="1" style="fill:#272a5d"/><circle cx="126" cy="101" r="1" style="fill:#272a5d"/><circle cx="151" cy="101" r="1" style="fill:#272a5d"/><circle cx="176" cy="101" r="1" style="fill:#272a5d"/><circle cx="201" cy="101" r="1" style="fill:#272a5d"/><circle cx="1" cy="126" r="1" style="fill:#272a5d"/><circle cx="26" cy="126" r="1" style="fill:#272a5d"/><circle cx="51" cy="126" r="1" style="fill:#272a5d"/><circle cx="76" cy="126" r="1" style="fill:#272a5d"/><circle cx="101" cy="126" r="1" style="fill:#272a5d"/><circle cx="126" cy="126" r="1" style="fill:#272a5d"/><circle cx="151" cy="126" r="1" style="fill:#272a5d"/><circle cx="176" cy="126" r="1" style="fill:#272a5d"/><circle cx="201" cy="126" r="1" style="fill:#272a5d"/><circle cx="1" cy="151" r="1" style="fill:#272a5d"/><circle cx="26" cy="151" r="1" style="fill:#272a5d"/><circle cx="51" cy="151" r="1" style="fill:#272a5d"/><circle cx="76" cy="151" r="1" style="fill:#272a5d"/><circle cx="101" cy="151" r="1" style="fill:#272a5d"/><circle cx="126" cy="151" r="1" style="fill:#272a5d"/><circle cx="151" cy="151" r="1" style="fill:#272a5d"/><circle cx="176" cy="151" r="1" style="fill:#272a5d"/><circle cx="201" cy="151" r="1" style="fill:#272a5d"/></g></g></svg>